# xmcd CD database file
#
# Track frame offsets:
#	150
#	35062
#	54637
#	96862
#	112987
#	136312
#	164287
#	183412
#	190162
#	210262
#	232237
#	250687
#	266512
#	304462
#	308125
#
# Disc length: 4340 seconds
#
# Revision: 0
# Processed by: cddbd v1.4PL0 Copyright (c) Steve Scherf et al.
# Submitted via: CDex 1.50Beta6
#
DISCID=d210f20f
DTITLE=Clifford Brown - Basin Street
DYEAR=1956
DGENRE=Jazz
TTITLE0=What is this Thing Called Love
TTITLE1=Love is a Many Splendored Thing
TTITLE2=I'll Remember April
TTITLE3=Powell's Prances
TTITLE4=Time
TTITLE5=The Scene is Cleen
TTITLE6=Gertude's Bounce
TTITLE7=I'll Remember April
TTITLE8=Flossie Lou
TTITLE9=Flossie Lou
TTITLE10=Flossie Lou
TTITLE11=Flossie Lou
TTITLE12=What is this Thing Called Love
TTITLE13=Love is a Many Splendored Thing
TTITLE14=Love is a Many Splendored Thing
EXTD=YEAR: 1956
EXTT0=
EXTT1=
EXTT2=
EXTT3=
EXTT4=
EXTT5=
EXTT6=
EXTT7=
EXTT8=
EXTT9=
EXTT10=
EXTT11=
EXTT12=
EXTT13=
EXTT14=
PLAYORDER=
